<svg width="149" height="152" viewBox="0 0 149 152" fill="none" xmlns="http://www.w3.org/2000/svg">
<path fill-rule="evenodd" clip-rule="evenodd" d="M0 9.55973C0 4.28005 4.33154 0 9.67538 0H26.5305C30.3337 0 34.0196 1.30225 36.9603 3.68509L42.0877 7.83955L42.2159 7.95511C42.3342 7.91566 42.4525 7.87713 42.5712 7.83955C51.8217 4.91207 63.045 4.35533 74.5 4.35533C85.955 4.35533 97.1783 4.91207 106.429 7.83955C106.547 7.87713 106.666 7.91566 106.784 7.95511L106.912 7.83955L112.04 3.68509C114.98 1.30225 118.666 0 122.469 0H139.325C144.668 0 149 4.28005 149 9.55973V15.4694C149 20.0418 147.051 24.4026 143.63 27.4821L139.494 31.2061C137.474 33.0241 135.051 34.3471 132.418 35.0685L131.44 35.3366C135.272 44.3727 137.39 54.0315 137.39 61.8451C137.39 93.2764 117.707 106.851 100.364 118.812C86.7063 128.231 74.5 136.65 74.5 152C74.5 136.65 62.2936 128.231 48.636 118.812C31.2931 106.851 11.6102 93.2764 11.6102 61.8451C11.6102 54.0315 13.7277 44.3727 17.5605 35.3366L16.582 35.0685C13.9495 34.3471 11.5258 33.0241 9.50646 31.2061L5.37009 27.4821C1.9493 24.4026 0 20.0418 0 15.4694V9.55973ZM87.078 87.5414C87.078 89.0432 86.4153 90.483 85.236 91.5451C84.0567 92.6068 82.457 93.2034 80.7888 93.2034C79.3489 93.2034 77.9596 92.7584 76.848 91.9536C78.7402 96.9582 83.5827 101.7 90.9481 94.0744C97.4504 86.9885 90.659 72.0435 84.0426 63.1751C81.8373 60.2191 78.2168 58.7964 74.5 58.7964C70.7832 58.7964 67.1627 60.2191 64.9574 63.1751C58.341 72.0435 51.5496 86.9885 58.0519 94.0744C65.4173 101.7 70.2598 96.9582 72.152 91.9536C71.0404 92.7584 69.6511 93.2034 68.2112 93.2034C66.543 93.2034 64.9433 92.6068 63.764 91.5451C62.5847 90.483 61.922 89.0432 61.922 87.5414H87.078ZM50.4164 43.3015H32.8962L46.7038 54.2253C49.7423 56.6288 54.1833 55.8605 56.0634 52.6058C58.4373 48.4965 55.2843 43.3015 50.4164 43.3015ZM98.5837 43.3015H116.104L102.296 54.2253C99.2578 56.6288 94.8167 55.8605 92.9366 52.6058C90.5627 48.4965 93.7157 43.3015 98.5837 43.3015Z" fill="#2CAC5B"/>
</svg>
